<svg width="45" height="14" viewBox="0 0 45 14" fill="none" xmlns="http://www.w3.org/2000/svg">
<rect x="21" y="1" width="24" height="13" rx="1" fill="#C58C1E"/>
<path d="M7.98438 6H5.78125C5.76563 5.81771 5.72396 5.65234 5.65625 5.50391C5.59115 5.35547 5.5 5.22786 5.38281 5.12109C5.26823 5.01172 5.12891 4.92839 4.96484 4.87109C4.80078 4.8112 4.61458 4.78125 4.40625 4.78125C4.04167 4.78125 3.73307 4.86979 3.48047 5.04687C3.23047 5.22396 3.04036 5.47786 2.91016 5.80859C2.78255 6.13932 2.71875 6.53646 2.71875 7C2.71875 7.48958 2.78385 7.89974 2.91406 8.23047C3.04687 8.55859 3.23828 8.80599 3.48828 8.97266C3.73828 9.13672 4.03906 9.21875 4.39063 9.21875C4.59115 9.21875 4.77083 9.19401 4.92969 9.14453C5.08854 9.09245 5.22656 9.01823 5.34375 8.92188C5.46094 8.82552 5.55599 8.70964 5.62891 8.57422C5.70443 8.4362 5.75521 8.28125 5.78125 8.10937L7.98438 8.125C7.95833 8.46354 7.86328 8.80859 7.69922 9.16016C7.53516 9.50911 7.30208 9.83203 7 10.1289C6.70052 10.4232 6.32943 10.6602 5.88672 10.8398C5.44401 11.0195 4.92969 11.1094 4.34375 11.1094C3.60938 11.1094 2.95052 10.9518 2.36719 10.6367C1.78646 10.3216 1.32682 9.85807 0.988281 9.24609C0.652344 8.63411 0.484375 7.88542 0.484375 7C0.484375 6.10937 0.65625 5.35937 1 4.75C1.34375 4.13802 1.80729 3.67578 2.39063 3.36328C2.97396 3.04818 3.625 2.89062 4.34375 2.89062C4.84896 2.89062 5.3138 2.95964 5.73828 3.09766C6.16276 3.23568 6.53516 3.4375 6.85547 3.70312C7.17578 3.96615 7.43359 4.29036 7.62891 4.67578C7.82422 5.0612 7.94271 5.5026 7.98438 6ZM10.6729 11.0938C10.29 11.0938 9.9515 11.0313 9.65723 10.9062C9.36556 10.7786 9.13639 10.5859 8.96973 10.3281C8.80306 10.0703 8.71973 9.74219 8.71973 9.34375C8.71973 9.01562 8.77572 8.73568 8.8877 8.50391C8.99967 8.26953 9.15592 8.07812 9.35645 7.92969C9.55697 7.78125 9.79004 7.66797 10.0557 7.58984C10.3239 7.51172 10.613 7.46094 10.9229 7.4375C11.2588 7.41146 11.5283 7.38021 11.7314 7.34375C11.9372 7.30469 12.0856 7.2513 12.1768 7.18359C12.2679 7.11328 12.3135 7.02083 12.3135 6.90625V6.89062C12.3135 6.73437 12.2536 6.61458 12.1338 6.53125C12.014 6.44792 11.8604 6.40625 11.6729 6.40625C11.4671 6.40625 11.2992 6.45182 11.1689 6.54297C11.0413 6.63151 10.9645 6.76823 10.9385 6.95312H8.9541C8.98014 6.58854 9.09603 6.2526 9.30176 5.94531C9.51009 5.63542 9.81348 5.38802 10.2119 5.20313C10.6104 5.01563 11.1077 4.92188 11.7041 4.92188C12.1338 4.92188 12.5192 4.97266 12.8604 5.07422C13.2015 5.17318 13.4919 5.3125 13.7314 5.49219C13.971 5.66927 14.1533 5.8776 14.2783 6.11719C14.4059 6.35417 14.4697 6.61198 14.4697 6.89062V11H12.4541V10.1562H12.4072C12.2874 10.3802 12.1416 10.5612 11.9697 10.6992C11.8005 10.8372 11.6064 10.9375 11.3877 11C11.1715 11.0625 10.9333 11.0938 10.6729 11.0938ZM11.376 9.73437C11.54 9.73437 11.6937 9.70052 11.8369 9.63281C11.9827 9.5651 12.1012 9.46745 12.1924 9.33984C12.2835 9.21224 12.3291 9.05729 12.3291 8.875V8.375C12.2718 8.39844 12.2106 8.42057 12.1455 8.44141C12.083 8.46224 12.0153 8.48177 11.9424 8.5C11.8721 8.51823 11.7965 8.53516 11.7158 8.55078C11.6377 8.56641 11.5557 8.58073 11.4697 8.59375C11.3031 8.61979 11.1663 8.66276 11.0596 8.72266C10.9554 8.77995 10.8773 8.85156 10.8252 8.9375C10.7757 9.02083 10.751 9.11458 10.751 9.21875C10.751 9.38542 10.8096 9.51302 10.9268 9.60156C11.0439 9.6901 11.1937 9.73437 11.376 9.73437ZM15.5 11V5H17.5938V6.14062H17.6563C17.7656 5.71875 17.9388 5.41016 18.1758 5.21484C18.4154 5.01953 18.6953 4.92188 19.0156 4.92188C19.1094 4.92188 19.2018 4.92969 19.293 4.94531C19.3867 4.95833 19.4766 4.97786 19.5625 5.00391V6.84375C19.4557 6.80729 19.3242 6.77995 19.168 6.76172C19.0117 6.74349 18.8776 6.73437 18.7656 6.73437C18.5547 6.73437 18.3646 6.78255 18.1953 6.87891C18.0286 6.97266 17.8971 7.10547 17.8008 7.27734C17.7044 7.44661 17.6563 7.64583 17.6563 7.875V11H15.5Z" fill="white"/>
<path d="M24.6172 7.625V11H22.4609V3H24.5391V6.14062H24.6016C24.737 5.75781 24.9622 5.45964 25.2773 5.24609C25.5924 5.02995 25.9714 4.92188 26.4141 4.92188C26.8385 4.92188 27.207 5.01823 27.5195 5.21094C27.8346 5.40365 28.0781 5.66927 28.25 6.00781C28.4245 6.34635 28.5104 6.73437 28.5078 7.17187V11H26.3516V7.625C26.3542 7.32812 26.2799 7.09505 26.1289 6.92578C25.9805 6.75651 25.7682 6.67188 25.4922 6.67188C25.3177 6.67188 25.1641 6.71094 25.0313 6.78906C24.901 6.86458 24.7995 6.97396 24.7266 7.11719C24.6562 7.25781 24.6198 7.42708 24.6172 7.625ZM33.4629 8.375V5H35.6191V11H33.5723V9.85937H33.5098C33.3796 10.2422 33.1517 10.5417 32.8262 10.7578C32.5007 10.9714 32.1139 11.0781 31.666 11.0781C31.2467 11.0781 30.8796 10.9818 30.5645 10.7891C30.252 10.5964 30.0085 10.3307 29.834 9.99219C29.6621 9.65365 29.5749 9.26562 29.5723 8.82812V5H31.7285V8.375C31.7311 8.67187 31.8066 8.90495 31.9551 9.07422C32.1061 9.24349 32.3171 9.32812 32.5879 9.32812C32.7676 9.32812 32.9225 9.29036 33.0527 9.21484C33.1855 9.13672 33.2871 9.02734 33.3574 8.88672C33.4303 8.74349 33.4655 8.57292 33.4629 8.375ZM36.6846 11V3H38.8408V6.04687H38.8721C38.9502 5.84375 39.0648 5.65755 39.2158 5.48828C39.3669 5.31641 39.5544 5.17969 39.7783 5.07812C40.0023 4.97396 40.2627 4.92188 40.5596 4.92188C40.9554 4.92188 41.3317 5.02734 41.6885 5.23828C42.0479 5.44922 42.3395 5.78125 42.5635 6.23437C42.79 6.6875 42.9033 7.27604 42.9033 8C42.9033 8.69271 42.7952 9.26693 42.5791 9.72266C42.3656 10.1784 42.0791 10.5182 41.7197 10.7422C41.363 10.9661 40.971 11.0781 40.5439 11.0781C40.2627 11.0781 40.0114 11.0326 39.79 10.9414C39.5713 10.8477 39.3838 10.7214 39.2275 10.5625C39.0739 10.401 38.9554 10.2187 38.8721 10.0156H38.8252V11H36.6846ZM38.7939 8C38.7939 8.29167 38.8317 8.54427 38.9072 8.75781C38.9854 8.96875 39.0947 9.13281 39.2354 9.25C39.3786 9.36458 39.5492 9.42188 39.7471 9.42188C39.945 9.42188 40.113 9.36589 40.251 9.25391C40.3916 9.13932 40.4984 8.97656 40.5713 8.76562C40.6468 8.55208 40.6846 8.29687 40.6846 8C40.6846 7.70312 40.6468 7.44922 40.5713 7.23828C40.4984 7.02474 40.3916 6.86198 40.251 6.75C40.113 6.63542 39.945 6.57812 39.7471 6.57812C39.5492 6.57812 39.3786 6.63542 39.2354 6.75C39.0947 6.86198 38.9854 7.02474 38.9072 7.23828C38.8317 7.44922 38.7939 7.70312 38.7939 8Z" fill="black"/>
</svg>
